<svg id="_64" data-name="64" xmlns="http://www.w3.org/2000/svg" viewBox="0 0 625.9 622"><defs><style>.cls-1,.cls-3{fill:#3e3c8c;}.cls-2{fill:#cecece;}.cls-2,.cls-3{fill-rule:evenodd;}</style></defs><title>icon</title><circle class="cls-1" cx="467" cy="397.7" r="21.7"/><path class="cls-2" d="M-1334.8-621.9a10.7,10.7,0,0,0-8.4,4.1h-53.5a15,15,0,0,0-14.4,10.5l-19.6,63a.9.9,0,0,1-1.8,0l-35.3-136.5a7.1,7.1,0,0,0-6.8-5.3h-2.5a7,7,0,0,0-6.9,5.8l-12.5,67.3h0c-5.3,28.6-23.9,48-52.5,48s-54-24.8-54-55.5l.8-200v-.6c2-29.1,27.7-52.1,59.2-52.1s59.8,24.9,59.8,55.7l.4,1.8c-15.3,2-30.3,10.4-43.6,24.5a8.3,8.3,0,0,0-2.1,7.4c-18.2,22-29,51.5-29,74.4,0,35.7,17,39,44.8,45.2h.4c1.7,3.4,5,5.4,9.6,5.4a10.2,10.2,0,0,0,10.4-9.9,10.2,10.2,0,0,0-10.4-10,9.1,9.1,0,0,0-6.6,2.5v-.4c-27.4-5.8-34.9-7.1-34.9-32.8,0-20,10.4-46.9,26.1-66.5a10.2,10.2,0,0,0,7.1-3.3c7.9-8.3,20.3-18.7,35.7-18.7s27.8,10.4,35.7,19.1a9.7,9.7,0,0,0,7.1,2.9c15.8,19.6,25.7,46.5,25.7,66.5,0,25.7-7,27-34.4,32.8l-.4.4a8.5,8.5,0,0,0-6.3-2.5,10.2,10.2,0,0,0-10.4,10,10.2,10.2,0,0,0,10.4,9.9,10.9,10.9,0,0,0,9.6-5.4v-.4c28.2-5.8,44.8-9.5,44.8-44.8,0-22.9-10.8-52.4-28.6-73.9a9.3,9.3,0,0,0-2.1-7.9c-13.3-14.6-28.7-22.9-44.5-24.5h-.8v-1.8c0-37.4-32.8-67.7-73.5-67.7-39.2,0-71.3,28.7-73,64.7h0l.2,199.9h0c0,37.4,29.8,67.6,66.8,67.6s61.2-22.1,65.8-57.5h0l7.8-42a.5.5,0,0,1,1,0l34.1,132.2a7.6,7.6,0,0,0,7.3,5.7h1.7a7.5,7.5,0,0,0,7.2-5.3l23-73.9a14.9,14.9,0,0,1,14.3-10.5h44a10.3,10.3,0,0,0,8,3.7,10.7,10.7,0,0,0,10.7-10.7A10.6,10.6,0,0,0-1334.8-621.9Z" transform="translate(1801.8 1009)"/><path class="cls-3" d="M-1420.1-731.9h0a.6.6,0,0,0,.6-.6.6.6,0,0,0-.6-.6.6.6,0,0,0-.6.6.5.5,0,0,0,.6.6Z" transform="translate(1801.8 1009)"/><path class="cls-3" d="M-1512.3-664.1h0c1.7,3.3,5,5.4,9.6,5.4a10.2,10.2,0,0,0,10.4-10,10.2,10.2,0,0,0-10.4-10,9.5,9.5,0,0,0-6.7,2.5v-.2Z" transform="translate(1801.8 1009)"/><path class="cls-3" d="M-1458.3-668.7a10.2,10.2,0,0,0,10.4,10,11.1,11.1,0,0,0,9.6-5.4v-.3l-3.3-11.9a8.8,8.8,0,0,0-6.3-2.4A10.2,10.2,0,0,0-1458.3-668.7Z" transform="translate(1801.8 1009)"/><path class="cls-3" d="M-1432.5-775.8l10.5-7.5h0a9.3,9.3,0,0,0-2.1-7.9c-13.3-14.5-28.6-22.8-44.3-24.5h-14.4c-15.4,2.1-30.3,10.4-43.7,24.6a8.7,8.7,0,0,0-2.1,7.3l10.4,8.1h.1a10,10,0,0,0,7-3.4c8-8.3,20.4-18.7,35.8-18.7s27.9,10.4,35.8,19.2A9.9,9.9,0,0,0-1432.5-775.8Z" transform="translate(1801.8 1009)"/><path class="cls-3" d="M-1665.3-958.5C-1772-885.6-1826.4-750.9-1791-619c44.7,166.9,216.3,266,383.2,221.3,136.5-36.6,227.5-157.8,231.9-292-18.9,110.1-99.7,204.7-214.8,235.5-157.5,42.3-319.5-51.2-361.7-208.8-29.6-110.7,7.7-223.5,87.1-295.5Z" transform="translate(1801.8 1009)"/><path class="cls-2" d="M-1315.5-526.7c90-61.5,135.9-175.2,106.1-286.5-37.8-140.9-182.6-224.5-323.4-186.7-115.1,30.8-192,133.1-195.7,246.4,16-93,84.2-172.8,181.2-198.8,133-35.6,269.6,43.3,305.3,176.2,25,93.4-6.5,188.6-73.5,249.4Z" transform="translate(1801.8 1009)"/></svg>