<svg id="_64" data-name="64" xmlns="http://www.w3.org/2000/svg" viewBox="0 0 2466.5 622"><defs><style>.cls-1,.cls-3{fill:#fff;}.cls-2,.cls-4{fill:#3e3c8c;}.cls-3,.cls-4{fill-rule:evenodd;}</style></defs><title>logo-des</title><path class="cls-1" d="M-874.4-657.2c0,7.1-1.8,14.7-5.2,22.9s-9,16.3-16.4,24.2-17,14.3-28.6,19.3-25.1,7.4-40.5,7.4a136.9,136.9,0,0,1-31.9-3.4,88.4,88.4,0,0,1-26.1-10.3,90.5,90.5,0,0,1-21.5-18.5,116.9,116.9,0,0,1-15-23.4,124.5,124.5,0,0,1-9.3-27.6,153.9,153.9,0,0,1-3.1-31.1c0-17.8,2.6-33.8,7.8-47.9a101.8,101.8,0,0,1,22.3-36.2,97.3,97.3,0,0,1,34-22.9,111.2,111.2,0,0,1,41.6-7.9c17.9,0,33.9,3.6,47.9,10.8s24.7,16,32.2,26.5,11.2,20.5,11.2,29.9a19.4,19.4,0,0,1-5.5,13.6,17.2,17.2,0,0,1-13.1,5.8c-5.8,0-10.1-1.3-12.9-4s-6.1-7.4-9.6-14.1q-8.9-16.5-20.7-24.6c-7.9-5.5-17.6-8.2-29.2-8.2q-27.6,0-44.1,21t-16.4,59.7c0,17.2,2.5,31.6,7.3,43s11.7,20,20.5,25.6,19.3,8.5,31.2,8.5,23.8-3.2,32.7-9.6,15.6-15.8,20.2-28.2a48.9,48.9,0,0,1,7.1-14.3c2.8-3.6,7.3-5.5,13.6-5.5a19,19,0,0,1,13.7,5.6A18.4,18.4,0,0,1-874.4-657.2Z" transform="translate(1801.8 1009)"/><path class="cls-1" d="M-732.7-606.7a121.9,121.9,0,0,1-28.9,17.4,80.6,80.6,0,0,1-31.4,5.9c-10.5,0-19.8-2.1-27.8-6.3a46.5,46.5,0,0,1-18.6-17,44.5,44.5,0,0,1-6.5-23.3c0-11.3,3.6-20.9,10.8-28.9s16.9-13.3,29.4-16l19.5-4.1c10.4-2.1,19.3-4,26.7-5.8s15.5-3.9,24.1-6.4c-.5-10.9-2.7-18.9-6.6-23.9s-11.9-7.7-24.1-7.7c-10.4,0-18.3,1.5-23.6,4.4a38,38,0,0,0-13.6,13.2c-3.8,5.8-6.5,9.6-8,11.5s-4.9,2.8-10.1,2.8a18,18,0,0,1-12-4.4,14.6,14.6,0,0,1-5.1-11.5c0-7.2,2.6-14.3,7.8-21.1s13.1-12.5,24-16.9,24.4-6.7,40.6-6.7c18.2,0,32.4,2.1,42.8,6.4s17.7,11.1,22,20.4,6.4,21.5,6.4,36.8c0,9.7,0,17.9-.1,24.7s-.1,14.2-.2,22.5a81.9,81.9,0,0,0,3.9,24.2c2.5,8.5,3.8,13.9,3.8,16.3,0,4.2-2,8.1-5.9,11.6a20.5,20.5,0,0,1-13.6,5.2c-4.2,0-8.4-2-12.5-6S-728-599.2-732.7-606.7Zm-2.7-59.7a196,196,0,0,1-26.4,7c-11.5,2.5-19.5,4.3-23.9,5.5a31.6,31.6,0,0,0-12.7,6.8q-6,5-6,14.1a20.6,20.6,0,0,0,7.1,15.9c4.7,4.4,10.9,6.6,18.5,6.6a48,48,0,0,0,22.6-5.4c6.9-3.5,12-8.1,15.2-13.8s5.6-16.5,5.6-30.8Z" transform="translate(1801.8 1009)"/><path class="cls-1" d="M-619-789v63a97.5,97.5,0,0,1,23.7-18.5c8.1-4.2,18.1-6.4,29.9-6.4,13.7,0,25.8,3.3,36.1,9.8s18.3,15.9,24,28.2,8.6,27,8.6,43.9a116.7,116.7,0,0,1-4.8,34.4,82.5,82.5,0,0,1-13.8,27.1,63,63,0,0,1-22,17.8,64.1,64.1,0,0,1-28.5,6.3,68.5,68.5,0,0,1-17.9-2.3,50.9,50.9,0,0,1-14.3-6,64.9,64.9,0,0,1-10.1-7.6c-2.7-2.6-6.4-6.6-10.9-11.8v4.1c0,7.7-1.9,13.6-5.6,17.6a18.6,18.6,0,0,1-14.2,6c-5.9,0-10.5-2-14-6s-5.2-9.9-5.2-17.6V-787.2q0-12.4,5.1-18.9c3.3-4.3,8-6.5,14.1-6.5s11.2,2.1,14.7,6.2S-619-796.5-619-789Zm2,122.6c0,16.4,3.7,29,11.2,37.9s17.4,13.2,29.6,13.2c10.3,0,19.3-4.5,26.8-13.6s11.2-21.9,11.2-38.7c0-10.9-1.5-20.3-4.6-28.1s-7.6-14-13.3-18.2a32.9,32.9,0,0,0-20.1-6.5,35.6,35.6,0,0,0-21,6.5c-6.2,4.2-11,10.4-14.6,18.6S-617-677.6-617-666.4Z" transform="translate(1801.8 1009)"/><path class="cls-1" d="M-442.8-770.4a21.4,21.4,0,0,1-14.7-5.3c-4.1-3.5-6.1-8.5-6.1-14.9a18.6,18.6,0,0,1,6.2-14.5,21.5,21.5,0,0,1,14.6-5.6,21.5,21.5,0,0,1,14.2,5.1c4.1,3.4,6.2,8.4,6.2,15s-2,11.3-6,14.8A21,21,0,0,1-442.8-770.4Zm20.4,42.6v119.3c0,8.2-1.9,14.5-5.9,18.7a19.6,19.6,0,0,1-14.9,6.4,18.8,18.8,0,0,1-14.8-6.5c-3.8-4.4-5.6-10.6-5.6-18.6V-726.6c0-8.1,1.8-14.3,5.6-18.4a19.2,19.2,0,0,1,14.8-6.2,19.8,19.8,0,0,1,14.9,6.2C-424.3-740.9-422.4-735.1-422.4-727.8Z" transform="translate(1801.8 1009)"/><path class="cls-1" d="M-342.3-728.4v5c7.3-9.6,15.2-16.6,23.8-21.1s18.5-6.7,29.7-6.7a59.8,59.8,0,0,1,29.2,7.1A45.5,45.5,0,0,1-240.4-724a48.8,48.8,0,0,1,5.3,16.3,171.2,171.2,0,0,1,1.2,22.4v76.8c0,8.2-1.9,14.5-5.7,18.7a19,19,0,0,1-14.7,6.4,19.1,19.1,0,0,1-15-6.5q-5.7-6.6-5.7-18.6v-68.8q0-20.4-5.7-31.2c-3.8-7.2-11.3-10.8-22.6-10.8a33.6,33.6,0,0,0-20.1,6.6,38.1,38.1,0,0,0-13.3,18q-3,9.3-3,34.5v51.7c0,8.3-2,14.6-5.8,18.8a19.6,19.6,0,0,1-15.1,6.3,18.7,18.7,0,0,1-14.6-6.5c-3.9-4.4-5.8-10.6-5.8-18.6V-727.8c0-7.8,1.7-13.7,5.2-17.6s8.1-5.8,14-5.8a19.1,19.1,0,0,1,9.8,2.6,18.3,18.3,0,0,1,7.1,7.7A27.8,27.8,0,0,1-342.3-728.4Z" transform="translate(1801.8 1009)"/><path class="cls-1" d="M-77.7-657.2h-80.7a54.6,54.6,0,0,0,5.7,24.8A39.4,39.4,0,0,0-138-616.2a38.8,38.8,0,0,0,20.1,5.4,52.2,52.2,0,0,0,13.6-1.7A43.5,43.5,0,0,0-92.5-618a78.9,78.9,0,0,0,10.6-7.9c3.2-2.8,7.4-6.7,12.6-11.5q3.1-2.7,9-2.7c4.3,0,7.7,1.1,10.3,3.5s3.9,5.6,3.9,9.8-1.4,8.1-4.3,13.1a54.8,54.8,0,0,1-13.3,14.3A74.6,74.6,0,0,1-85.9-588c-8.9,3.1-19.2,4.6-30.7,4.6q-39.7,0-61.9-22.7t-22-61.5a103,103,0,0,1,5.4-33.9,73.9,73.9,0,0,1,15.9-26.9,69,69,0,0,1,25.7-17.1,91.6,91.6,0,0,1,33.8-6c16.2,0,30,3.4,41.5,10.2s20.2,15.6,25.9,26.4,8.7,21.7,8.7,32.9-3,17.1-9,20.2S-66.9-657.2-77.7-657.2Zm-80.7-23.4h74.9c-1.1-14.1-4.9-24.7-11.5-31.7s-15.2-10.5-26-10.5-18.7,3.6-25.3,10.7S-156.9-694.5-158.4-680.6Z" transform="translate(1801.8 1009)"/><path class="cls-1" d="M-6.6-747.6h4.5v-24.8c0-6.6.2-11.8.5-15.6a23.6,23.6,0,0,1,3-9.7,17.6,17.6,0,0,1,6.9-6.9,19.7,19.7,0,0,1,10.2-2.7c5.2,0,9.9,2,14.2,5.9a17.4,17.4,0,0,1,5.3,9.6,83,83,0,0,1,1.2,16.1v28.1H54.3c5.8,0,10.3,1.4,13.4,4.2a13.9,13.9,0,0,1,4.6,10.6q0,8.4-6.6,11.7c-4.4,2.2-10.7,3.3-18.8,3.3H39.2v75.9a114.4,114.4,0,0,0,.7,14.9,14.4,14.4,0,0,0,3.6,8.4q2.8,3.3,9.6,3.3a56.3,56.3,0,0,0,9.8-1.3,48,48,0,0,1,9.7-1.3,12.4,12.4,0,0,1,9,4,13.8,13.8,0,0,1,4,9.9c0,6.7-3.7,11.7-10.9,15.3s-17.7,5.3-31.3,5.3-22.7-2.2-29.3-6.5A30.5,30.5,0,0,1,1-607.9c-2.1-7.7-3.1-17.9-3.1-30.7v-79.2H-7.5c-6,0-10.5-1.4-13.6-4.2a13.6,13.6,0,0,1-4.7-10.8,13.2,13.2,0,0,1,4.9-10.6C-17.6-746.2-12.9-747.6-6.6-747.6Z" transform="translate(1801.8 1009)"/><path class="cls-1" d="M131.4-808.8h58.5c15.2,0,28.2,1.4,39.1,4.3a71.6,71.6,0,0,1,29.6,15.8q34.6,29.7,34.6,90.1a178.1,178.1,0,0,1-3.4,36.4A107.8,107.8,0,0,1,279-632.5a91.9,91.9,0,0,1-18.6,23.7A75.6,75.6,0,0,1,240.9-596a88,88,0,0,1-22.7,6.8,174.3,174.3,0,0,1-27.4,2H132.3c-8.2,0-14.3-1.2-18.5-3.7a17.8,17.8,0,0,1-8.1-10.4,69.6,69.6,0,0,1-1.8-17.5V-781.3c0-9.6,2.1-16.6,6.5-21S121.7-808.8,131.4-808.8Zm17.3,35.5v150.4h34c7.5,0,13.3-.2,17.6-.6a54.7,54.7,0,0,0,13.1-3,35.1,35.1,0,0,0,11.8-6.8q22.5-19.1,22.5-65.6c0-21.9-3.3-38.2-9.9-49.1s-14.7-17.8-24.4-20.8-21.3-4.5-35-4.5Z" transform="translate(1801.8 1009)"/><path class="cls-1" d="M484.3-667.3a98.2,98.2,0,0,1-5.8,34,74.5,74.5,0,0,1-16.6,26.7,73.4,73.4,0,0,1-26,17.2c-10.1,4-21.4,6-34,6a89.9,89.9,0,0,1-33.7-6.1,74.1,74.1,0,0,1-25.9-17.3,75.6,75.6,0,0,1-16.7-26.6,98.8,98.8,0,0,1-5.6-33.9,99.1,99.1,0,0,1,5.7-34.3,74.4,74.4,0,0,1,16.5-26.6,71.6,71.6,0,0,1,26-17,91.4,91.4,0,0,1,33.7-6c12.5,0,23.8,2,34,6.1A72.1,72.1,0,0,1,462-727.9a73.6,73.6,0,0,1,16.6,26.6A97.4,97.4,0,0,1,484.3-667.3Zm-41.5,0q0-25.2-11.1-39.3c-7.4-9.4-17.3-14.1-29.8-14.1a36.6,36.6,0,0,0-21.3,6.3c-6.2,4.2-10.9,10.4-14.2,18.5s-5,17.7-5,28.6,1.6,20.2,4.9,28.2,8,14.3,14.1,18.6a36.9,36.9,0,0,0,21.5,6.4c12.5,0,22.4-4.7,29.8-14.1S442.8-650.7,442.8-667.3Z" transform="translate(1801.8 1009)"/><path class="cls-1" d="M664.7-634.5c0,5.1-1.5,10.6-4.6,16.5A57.9,57.9,0,0,1,646-601.3a73.5,73.5,0,0,1-23.8,12.7c-9.5,3.3-20.3,4.9-32.3,4.9-25.5,0-45.4-7.5-59.7-22.3s-21.5-34.8-21.5-59.8c0-16.9,3.3-31.9,9.9-44.9A70,70,0,0,1,547-740.8c12.4-7.1,27.2-10.7,44.4-10.7a88.9,88.9,0,0,1,29.4,4.7,75.3,75.3,0,0,1,22.7,12.1,57.7,57.7,0,0,1,14.2,15.8c3.3,5.6,4.9,10.8,4.9,15.6a16.5,16.5,0,0,1-5.5,12.6,19.2,19.2,0,0,1-13.4,5.1,13.7,13.7,0,0,1-8.5-2.6,46,46,0,0,1-7.7-8.6c-5-7.6-10.3-13.4-15.8-17.2s-12.4-5.8-20.9-5.8c-12.2,0-22,4.8-29.5,14.3s-11.1,22.6-11.1,39.1A75.9,75.9,0,0,0,553-645a48.8,48.8,0,0,0,8.3,16.6A34.9,34.9,0,0,0,574.5-618a39.4,39.4,0,0,0,16.9,3.6c8.3,0,15.4-1.9,21.2-5.8s11.2-9.6,15.7-17.5a38.8,38.8,0,0,1,8.2-10.9,15.3,15.3,0,0,1,10.7-3.9,15.9,15.9,0,0,1,12.5,5.7C663-642.9,664.7-638.8,664.7-634.5Z" transform="translate(1801.8 1009)"/><circle class="cls-2" cx="467" cy="397.7" r="21.7"/><path class="cls-3" d="M-1334.8-621.9a10.7,10.7,0,0,0-8.4,4.1h-53.5a15,15,0,0,0-14.4,10.5l-19.6,63a.9.9,0,0,1-1.8,0l-35.3-136.5a7.1,7.1,0,0,0-6.8-5.3h-2.5a7,7,0,0,0-6.9,5.8l-12.5,67.3h0c-5.3,28.6-23.9,48-52.5,48s-54-24.8-54-55.5l.8-200v-.6c2-29.1,27.7-52.1,59.2-52.1s59.8,24.9,59.8,55.7l.4,1.8c-15.3,2-30.3,10.4-43.6,24.5a8.3,8.3,0,0,0-2.1,7.4c-18.2,22-29,51.5-29,74.4,0,35.7,17,39,44.8,45.2h.4c1.7,3.4,5,5.4,9.6,5.4a10.2,10.2,0,0,0,10.4-9.9,10.2,10.2,0,0,0-10.4-10,9.1,9.1,0,0,0-6.6,2.5v-.4c-27.4-5.8-34.9-7.1-34.9-32.8,0-20,10.4-46.9,26.1-66.5a10.2,10.2,0,0,0,7.1-3.3c7.9-8.3,20.3-18.7,35.7-18.7s27.8,10.4,35.7,19.1a9.7,9.7,0,0,0,7.1,2.9c15.8,19.6,25.7,46.5,25.7,66.5,0,25.7-7,27-34.4,32.8l-.4.4a8.5,8.5,0,0,0-6.3-2.5,10.2,10.2,0,0,0-10.4,10,10.2,10.2,0,0,0,10.4,9.9,10.9,10.9,0,0,0,9.6-5.4v-.4c28.2-5.8,44.8-9.5,44.8-44.8,0-22.9-10.8-52.4-28.6-73.9a9.3,9.3,0,0,0-2.1-7.9c-13.3-14.6-28.7-22.9-44.5-24.5h-.8v-1.8c0-37.4-32.8-67.7-73.5-67.7-39.2,0-71.3,28.7-73,64.7h0l.2,199.9h0c0,37.4,29.8,67.6,66.8,67.6s61.2-22.1,65.8-57.5h0l7.8-42a.5.5,0,0,1,1,0l34.1,132.2a7.6,7.6,0,0,0,7.3,5.7h1.7a7.5,7.5,0,0,0,7.2-5.3l23-73.9a14.9,14.9,0,0,1,14.3-10.5h44a10.3,10.3,0,0,0,8,3.7,10.7,10.7,0,0,0,10.7-10.7A10.6,10.6,0,0,0-1334.8-621.9Z" transform="translate(1801.8 1009)"/><path class="cls-4" d="M-1420.1-731.9h0a.6.6,0,0,0,.6-.6.6.6,0,0,0-.6-.6.6.6,0,0,0-.6.6.5.5,0,0,0,.6.6Z" transform="translate(1801.8 1009)"/><path class="cls-4" d="M-1512.3-664.1h0c1.7,3.3,5,5.4,9.6,5.4a10.2,10.2,0,0,0,10.4-10,10.2,10.2,0,0,0-10.4-10,9.5,9.5,0,0,0-6.7,2.5v-.2Z" transform="translate(1801.8 1009)"/><path class="cls-4" d="M-1458.3-668.7a10.2,10.2,0,0,0,10.4,10,11.1,11.1,0,0,0,9.6-5.4v-.3l-3.3-11.9a8.8,8.8,0,0,0-6.3-2.4A10.2,10.2,0,0,0-1458.3-668.7Z" transform="translate(1801.8 1009)"/><path class="cls-4" d="M-1432.5-775.8l10.5-7.5h0a9.3,9.3,0,0,0-2.1-7.9c-13.3-14.5-28.6-22.8-44.3-24.5h-14.4c-15.4,2.1-30.3,10.4-43.7,24.6a8.7,8.7,0,0,0-2.1,7.3l10.4,8.1h.1a10,10,0,0,0,7-3.4c8-8.3,20.4-18.7,35.8-18.7s27.9,10.4,35.8,19.2A9.9,9.9,0,0,0-1432.5-775.8Z" transform="translate(1801.8 1009)"/><path class="cls-4" d="M-1665.3-958.5C-1772-885.6-1826.4-750.9-1791-619c44.7,166.9,216.3,266,383.2,221.3,136.5-36.6,227.5-157.8,231.9-292-18.9,110.1-99.7,204.7-214.8,235.5-157.5,42.3-319.5-51.2-361.7-208.8-29.6-110.7,7.7-223.5,87.1-295.5Z" transform="translate(1801.8 1009)"/><path class="cls-3" d="M-1315.5-526.7c90-61.5,135.9-175.2,106.1-286.5-37.8-140.9-182.6-224.5-323.4-186.7-115.1,30.8-192,133.1-195.7,246.4,16-93,84.2-172.8,181.2-198.8,133-35.6,269.6,43.3,305.3,176.2,25,93.4-6.5,188.6-73.5,249.4Z" transform="translate(1801.8 1009)"/></svg>